<svg xmlns="http://www.w3.org/2000/svg" viewBox="0 0 200 200">
  <g fill="none" stroke="#E8B923" stroke-width="6" stroke-linecap="round" stroke-linejoin="round">
    <!-- Banana trasera -->
    <path d="M55 150
             C40 145, 32 128, 36 108
             C40 85, 55 62, 78 48
             C88 42, 100 40, 108 44" />
    <!-- Banana delantera -->
    <path d="M70 155
             C50 150, 40 130, 46 108
             C52 82, 72 55, 100 42
             C112 37, 126 38, 134 46
             C140 52, 138 62, 130 66
             C112 74, 96 92, 88 114
             C82 130, 82 144, 92 152
             C108 164, 132 158, 146 142
             C150 138, 156 140, 155 146
             C150 165, 128 178, 104 176
             C90 175, 76 168, 70 155 Z" />
    <!-- Punta del tallo -->
    <path d="M128 48 C132 40, 140 36, 148 38" />
  </g>
</svg>
