<svg width="680" height="680" viewBox="0 0 680 680" xmlns="http://www.w3.org/2000/svg">
  <g fill="none" stroke="#E6B422" stroke-width="14" stroke-linecap="round" stroke-linejoin="round">
    <!-- leaf outline: pointed top, wide middle, tapering to stem at bottom -->
    <path d="M340 95
             C 365 130 390 150 420 165
             C 400 180 415 200 445 210
             C 425 225 445 250 475 265
             C 450 275 470 305 495 325
             C 465 330 480 365 500 390
             C 470 390 480 425 495 455
             C 465 450 465 480 470 505
             C 440 495 430 520 425 545
             C 400 530 385 550 375 570
             C 360 555 340 565 330 580
             L 300 555
             C 290 570 270 560 255 545
             C 245 560 220 545 210 525
             C 195 535 175 515 170 495
             C 155 500 140 480 140 460
             C 125 460 115 440 118 420
             C 105 415 100 395 108 375
             C 95 365 96 345 108 330
             C 98 315 105 295 122 285
             C 115 270 128 250 150 245
             C 145 230 160 210 185 205
             C 180 190 200 170 225 165
             C 225 150 245 130 270 125
             C 275 110 295 95 340 95 Z"/>
    <!-- central vein from tip to stem -->
    <path d="M340 110 L280 610" stroke-width="10"/>
    <!-- stem -->
    <path d="M280 610 Q265 645 255 670" stroke-width="10"/>
    <!-- side veins, left -->
    <path d="M310 220 Q250 240 195 240" stroke-width="6" opacity="0.7"/>
    <path d="M300 300 Q225 320 165 310" stroke-width="6" opacity="0.7"/>
    <path d="M292 380 Q210 400 150 385" stroke-width="6" opacity="0.7"/>
    <path d="M284 460 Q205 480 150 460" stroke-width="6" opacity="0.7"/>
    <!-- side veins, right -->
    <path d="M330 200 Q390 215 435 200" stroke-width="6" opacity="0.7"/>
    <path d="M320 275 Q385 290 435 270" stroke-width="6" opacity="0.7"/>
    <path d="M310 355 Q375 370 420 345" stroke-width="6" opacity="0.7"/>
    <path d="M300 435 Q360 450 400 425" stroke-width="6" opacity="0.7"/>
  </g>
</svg>
